<svg width="29" height="25" viewBox="0 0 29 25" fill="none" xmlns="http://www.w3.org/2000/svg">
<path id="Vector" d="M14.0625 11.0909C12.789 8.61421 9.32093 3.99857 6.09646 1.72219C3.00758 -0.458463 1.82922 -0.0806301 1.05672 0.268433C0.162573 0.672465 0 2.04519 0 2.85284C0 3.66048 0.442772 9.47437 0.731574 10.4448C1.68583 13.6514 5.08283 14.7349 8.21124 14.3872C8.37117 14.3634 8.53335 14.3416 8.69757 14.3212C8.53648 14.347 8.37421 14.3691 8.21124 14.3872C3.62659 15.0662 -0.445016 16.7369 4.89517 22.682C10.7694 28.764 12.9457 21.3779 14.0625 17.633C15.1793 21.3779 16.4656 28.4977 23.1246 22.682C28.125 17.633 24.4984 15.0664 19.9137 14.3873C19.7508 14.3692 19.5885 14.3473 19.4274 14.3215C19.5916 14.3417 19.7538 14.3637 19.9137 14.3873C23.0422 14.7351 26.4391 13.6516 27.3934 10.4451C27.6822 9.4746 28.125 3.66069 28.125 2.85305C28.125 2.0454 27.9624 0.672665 27.0683 0.268634C26.2958 -0.0804285 25.1174 -0.458262 22.0285 1.72239C18.8041 3.99877 15.336 8.61421 14.0625 11.0909Z" fill="#CDD6F4"/>
</svg>
