<svg xmlns="http://www.w3.org/2000/svg" width="21" height="21" viewBox="0 0 21 21" fill="none">
    <g clip-path="url(#clip0_53_78)">
        <path
            d="M10.2368 5.73316C10.224 5.73328 10.2115 5.73547 10.2 5.7396C10.1886 5.74373 10.1785 5.74971 10.1705 5.75707C10.1624 5.76444 10.1566 5.77305 10.1534 5.78228C10.1503 5.7915 10.1497 5.8011 10.1521 5.81045L14.0045 20.2501C15.8682 19.4474 17.4439 18.0967 18.5218 16.3774L10.3129 5.76519C10.3051 5.75533 10.2941 5.74718 10.2807 5.74156C10.2673 5.73593 10.2521 5.73303 10.2368 5.73316Z"
            fill="url(#paint0_linear_53_78)" />
        <path
            d="M10.0489 1.06567C4.52583 1.06567 0.0487061 5.54281 0.0487061 11.0657C0.0487061 12.9443 0.5778 14.7851 1.57576 16.3769L9.9134 5.59805C9.97322 5.52019 10.1241 5.52019 10.1839 5.59805L18.5216 16.3774C19.5195 14.7854 20.049 12.9445 20.049 11.0657C20.049 5.54281 15.5719 1.06567 10.0489 1.06567Z"
            fill="#CDD6F4" />
    </g>
    <defs>
        <linearGradient id="paint0_linear_53_78" x1="10.2368" y1="5.73316" x2="16.6659" y2="18.5636"
            gradientUnits="userSpaceOnUse">
            <stop stop-color="white" stop-opacity="0" />
            <stop offset="0.495173" stop-color="white" stop-opacity="0.3" />
            <stop offset="1" stop-color="white" stop-opacity="0.3" />
        </linearGradient>
        <clipPath id="clip0_53_78">
            <rect width="20" height="20" fill="white" transform="translate(0.06604 0.5)" />
        </clipPath>
    </defs>
</svg>