<svg width="33" height="25" viewBox="0 0 33 25" fill="none" xmlns="http://www.w3.org/2000/svg">
<g id="discord">
<path id="Vector" d="M27.9421 2.09371C25.7749 1.10151 23.487 0.397618 21.1369 0C20.8153 0.574897 20.5243 1.16639 20.2651 1.772C17.7618 1.39477 15.2161 1.39477 12.7127 1.772C12.4534 1.16645 12.1624 0.574966 11.841 0C9.48935 0.400976 7.19996 1.10654 5.03059 2.0989C0.723823 8.47084 -0.443674 14.6845 0.140075 20.81C2.66222 22.6735 5.48523 24.0907 8.48638 25C9.16215 24.0911 9.76012 23.1269 10.2739 22.1176C9.29801 21.7531 8.35605 21.3034 7.45898 20.7737C7.69508 20.6024 7.92598 20.426 8.1491 20.2548C10.7594 21.4823 13.6083 22.1188 16.4928 22.1188C19.3773 22.1188 22.2263 21.4823 24.8365 20.2548C25.0622 20.439 25.2931 20.6154 25.5266 20.7737C24.6278 21.3042 23.6842 21.7548 22.7065 22.1202C23.2197 23.129 23.8177 24.0924 24.4941 25C27.4978 24.0943 30.3229 22.6778 32.8456 20.8126C33.5305 13.709 31.6755 7.55241 27.9421 2.09371ZM11.0134 17.0429C9.38665 17.0429 8.04273 15.5666 8.04273 13.7505C8.04273 11.9344 9.33995 10.4452 11.0082 10.4452C12.6764 10.4452 14.0099 11.9344 13.9814 13.7505C13.9529 15.5666 12.6712 17.0429 11.0134 17.0429ZM21.9723 17.0429C20.343 17.0429 19.0042 15.5666 19.0042 13.7505C19.0042 11.9344 20.3014 10.4452 21.9723 10.4452C23.6431 10.4452 24.9662 11.9344 24.9377 13.7505C24.9092 15.5666 23.6301 17.0429 21.9723 17.0429Z" fill="#CDD6F4"/>
</g>
</svg>
