<svg width="26" height="25" viewBox="0 0 26 25" fill="none" xmlns="http://www.w3.org/2000/svg">
<g id="github" clip-path="url(#clip0_11_64)">
<path id="Vector" fill-rule="evenodd" clip-rule="evenodd" d="M12.7224 0C5.68724 0 0 5.72917 0 12.8169C0 18.4826 3.64401 23.2784 8.69922 24.9758C9.33125 25.1034 9.56276 24.7 9.56276 24.3607C9.56276 24.0635 9.54193 23.0451 9.54193 21.9839C6.00286 22.7479 5.26589 20.456 5.26589 20.456C4.69714 18.9706 3.85443 18.5888 3.85443 18.5888C2.69609 17.8036 3.9388 17.8036 3.9388 17.8036C5.2237 17.8885 5.89792 19.1193 5.89792 19.1193C7.03516 21.0714 8.86771 20.5198 9.60495 20.1802C9.71016 19.3526 10.0474 18.7797 10.4055 18.4615C7.58281 18.1643 4.61302 17.0609 4.61302 12.1378C4.61302 10.7372 5.11823 9.59141 5.91875 8.70026C5.79245 8.38203 5.35 7.06615 6.04531 5.30495C6.04531 5.30495 7.11953 4.96536 9.54167 6.62057C10.5787 6.34002 11.6481 6.1973 12.7224 6.19609C13.7966 6.19609 14.8917 6.34479 15.9029 6.62057C18.3253 4.96536 19.3995 5.30495 19.3995 5.30495C20.0948 7.06615 19.6521 8.38203 19.5258 8.70026C20.3474 9.59141 20.8318 10.7372 20.8318 12.1378C20.8318 17.0609 17.862 18.143 15.0182 18.4615C15.4818 18.8646 15.8818 19.6284 15.8818 20.838C15.8818 22.5568 15.8609 23.9362 15.8609 24.3604C15.8609 24.7 16.0927 25.1034 16.7245 24.976C21.7797 23.2781 25.4237 18.4826 25.4237 12.8169C25.4445 5.72917 19.7365 0 12.7224 0Z" fill="#CDD6F4"/>
</g>
<defs>
<clipPath id="clip0_11_64">
<rect width="25.5208" height="25" fill="white"/>
</clipPath>
</defs>
</svg>
