<svg width="26" height="25" viewBox="0 0 26 25" fill="none" xmlns="http://www.w3.org/2000/svg">
<g id="lastfm 1" clip-path="url(#clip0_18_90)">
<path id="Vector" d="M11.5463 17.9248L10.6283 15.4346C10.6283 15.4346 9.13904 17.0947 6.90759 17.0947C4.93005 17.0947 3.52869 15.376 3.52869 12.627C3.52869 9.10645 5.30603 7.84668 7.04919 7.84668C10.2963 7.84668 10.7015 10.4492 11.976 14.4336C12.8939 17.2119 14.6127 19.4434 19.5638 19.4434C23.1136 19.4434 25.5209 18.3545 25.5209 15.4932C25.5209 11.9336 22.4594 11.5576 19.9056 10.9961C18.6459 10.708 18.2748 10.1953 18.2748 9.33594C18.2748 8.36426 19.0463 7.78809 20.306 7.78809C21.683 7.78809 22.4252 8.30566 22.5375 9.53613L25.3988 9.19434C25.1693 6.61621 23.392 5.55664 20.472 5.55664C17.8939 5.55664 15.3744 6.52832 15.3744 9.65332C15.3744 11.6016 16.3217 12.832 18.6947 13.4033C20.8871 13.9209 22.5912 14.0771 22.5912 15.6348C22.5912 16.6943 21.5609 17.124 19.6127 17.124C16.722 17.124 15.516 15.6055 14.8324 13.5156C13.2699 8.78906 12.7035 5.55664 6.95642 5.55664C2.75232 5.55664 0.520874 8.21777 0.520874 12.7441C0.520874 17.0947 2.75232 19.4434 6.76599 19.4434C9.99841 19.4434 11.5463 17.9248 11.5463 17.9248Z" fill="#CDD6F4"/>
</g>
<defs>
<clipPath id="clip0_18_90">
<rect width="25" height="25" fill="white" transform="translate(0.520874)"/>
</clipPath>
</defs>
</svg>
