<svg width="31" height="30" viewBox="0 0 31 30" fill="none" xmlns="http://www.w3.org/2000/svg">
<g id="file_download_off_FILL0_wght400_GRAD0_opsz24 1">
<path id="Vector" d="M25.264 28.2812L21.9828 25H8.04529C7.35779 25 6.76925 24.7552 6.27966 24.2656C5.79008 23.776 5.54529 23.1875 5.54529 22.5V18.75H8.04529V22.5H19.4828L16.264 19.2812L15.5453 20L9.29529 13.75L10.014 13.0312L2.26404 5.28125L4.04529 3.5L27.0453 26.5L25.264 28.2812ZM19.8265 15.7188L18.0453 13.9375L20.0453 11.9375L21.7953 13.75L19.8265 15.7188ZM16.7953 12.6875L14.2953 10.1875V5H16.7953V12.6875ZM25.5453 21.4375L23.0453 18.9375V18.75H25.5453V21.4375Z" fill="#CDD6F4"/>
</g>
</svg>
