<svg width="25" height="25" viewBox="0 0 25 25" fill="none" xmlns="http://www.w3.org/2000/svg">
<path id="path0" fill-rule="evenodd" clip-rule="evenodd" d="M11.4977 0.0460254C10.9075 0.107802 10.6459 0.145391 9.97507 0.265216C9.73304 0.308436 9.00132 0.50122 8.65865 0.612163C8.43439 0.684645 8.0646 0.818507 7.91321 0.881949C7.86087 0.903916 7.71813 0.962679 7.596 1.01272C5.183 2.00019 2.97618 3.97505 1.60774 6.37124C1.45405 6.64039 1.05905 7.44832 0.964126 7.68766C0.933039 7.76617 0.882841 7.8875 0.852706 7.95728C0.66246 8.39733 0.325109 9.57449 0.220986 10.1619C0.200843 10.2753 0.172056 10.4323 0.157068 10.5108C0.126061 10.6727 0.0774485 11.0929 0.0306603 11.6027C-0.010101 12.0472 -0.0102595 13.0569 0.0304225 13.4542C0.095371 14.0888 0.132405 14.3745 0.193626 14.7138C0.251913 15.0366 0.410597 15.7283 0.477369 15.9509C0.568963 16.2563 0.833119 17.0344 0.854292 17.0612C0.868012 17.0786 0.889899 17.1286 0.902825 17.1722C0.925268 17.2479 0.948344 17.3029 1.10901 17.6639C2.54533 20.8898 5.76722 23.6959 8.96 24.5018C9.01234 24.5149 9.22645 24.5708 9.43581 24.6259C11.3131 25.1196 13.7333 25.1251 15.5341 24.6398C15.6257 24.6151 15.7828 24.573 15.8831 24.5463C18.605 23.821 21.2579 21.9035 22.8594 19.5037C23.2717 18.8858 23.9798 17.5877 23.9798 17.4496C23.9798 17.4261 23.992 17.3934 24.0068 17.3768C24.0672 17.3094 24.4254 16.3026 24.5339 15.8954C24.5606 15.7951 24.603 15.6376 24.628 15.5454C25.1109 13.762 25.1065 11.3568 24.617 9.46403C24.5651 9.26339 24.5135 9.06355 24.5023 9.01993C23.8563 6.49234 21.858 3.73817 19.5389 2.17925C19.2682 1.99725 18.7796 1.69242 18.7586 1.69242C18.7509 1.69242 18.69 1.65792 18.6232 1.61573C18.4916 1.5327 17.8982 1.23048 17.6674 1.12898C17.5889 1.0944 17.4318 1.02683 17.3184 0.978698C17.205 0.93064 17.0655 0.870847 17.0085 0.845946C16.8973 0.797334 16.1912 0.559507 16.0338 0.517635C14.3711 0.0751291 12.7906 -0.0891848 11.4977 0.0460254ZM12.3541 6.67441C13.0092 6.72152 14.0094 6.82683 14.416 6.89154C14.5207 6.9082 14.7106 6.93714 14.838 6.95594C16.8627 7.25411 19.1113 7.9917 20.7919 8.90891C21.5683 9.3327 21.8289 9.87362 21.5707 10.5259C21.3376 11.1149 20.5402 11.4266 19.9989 11.1402C19.5384 10.8965 18.6483 10.4517 18.5238 10.403C18.4453 10.3722 18.3383 10.3284 18.2859 10.3058C17.7946 10.093 16.7337 9.75229 16.0655 9.59265C15.9782 9.57188 15.8284 9.53532 15.7324 9.51161C15.535 9.46268 14.8874 9.33984 14.3208 9.24388C11.5652 8.77695 8.07665 8.90661 5.67689 9.56498C5.27705 9.67465 5.18379 9.68956 4.96317 9.67877C3.83462 9.62374 3.45596 8.16609 4.40806 7.5419C4.87547 7.2354 7.11726 6.80978 8.96 6.67759C9.5236 6.63714 11.806 6.63508 12.3541 6.67441ZM11.4184 10.954C13.1011 11.0417 14.729 11.3434 16.2752 11.8542C18.0279 12.4332 19.5927 13.2474 19.8021 13.6894C20.2511 14.6375 19.1897 15.4854 18.3018 14.8879C18.0305 14.7053 17.1329 14.2605 16.6364 14.0628C14.6664 13.2777 12.5751 12.8888 10.3294 12.8903C8.85889 12.8912 7.5742 13.0647 6.08926 13.4627C5.68855 13.5701 5.55191 13.5702 5.30972 13.4631C4.47229 13.0927 4.52868 11.9367 5.3987 11.6414C6.9301 11.1216 9.34414 10.8459 11.4184 10.954ZM11.8057 15.0471C11.9852 15.0646 12.282 15.0939 12.4652 15.1122C13.8755 15.253 15.4842 15.7063 16.795 16.3322C17.2392 16.5444 17.9763 16.9557 18.0721 17.045C18.6563 17.5892 18.1877 18.5437 17.4082 18.3975C17.3497 18.3865 17.1307 18.2808 16.9215 18.1625C15.3023 17.2469 13.7604 16.7858 11.7514 16.6163C10.9073 16.5451 9.26428 16.577 8.58458 16.6777C8.52939 16.6858 8.36999 16.7086 8.23042 16.7281C7.78371 16.7907 7.15865 16.8916 6.92987 16.938C6.80774 16.9628 6.56531 17.013 6.39109 17.0496C5.6627 17.2026 5.25017 16.9432 5.24914 16.3316C5.24826 15.856 5.45611 15.6608 6.12098 15.5122C7.90774 15.1127 10.3952 14.9092 11.8057 15.0471Z" fill="white"/>
</svg>
