<svg width="25" height="25" viewBox="0 0 25 25" fill="none" xmlns="http://www.w3.org/2000/svg">
<path id="Vector" d="M12.4872 0C5.79773 0 0.377808 5.41992 0.377808 12.1094C0.377808 18.7988 5.79773 24.2188 12.4872 24.2188C19.1766 24.2188 24.5966 18.7988 24.5966 12.1094C24.5966 5.41992 19.1766 0 12.4872 0ZM18.4344 8.2959L16.4471 17.6611C16.3007 18.3252 15.9052 18.4863 15.3534 18.1738L12.326 15.9424L10.8661 17.3486C10.705 17.5098 10.5682 17.6465 10.2557 17.6465L10.4706 14.5654L16.0809 9.49707C16.3251 9.28223 16.0272 9.16016 15.705 9.375L8.77136 13.7402L5.78308 12.8076C5.13367 12.6025 5.11902 12.1582 5.9198 11.8457L17.5946 7.34375C18.1366 7.14844 18.6102 7.47559 18.4344 8.2959Z" fill="#CDD6F4"/>
</svg>
