<svg width="32" height="25" viewBox="0 0 32 25" fill="none" xmlns="http://www.w3.org/2000/svg">
<g id="Logo white 1" clip-path="url(#clip0_17_77)">
<g id="Logo_1_">
<path id="white_background" d="M28.1855 6.28551C28.2039 6.55144 28.2039 6.81737 28.2039 7.08575C28.2039 15.2635 21.9784 24.6948 10.5948 24.6948V24.6899C7.23205 24.6948 3.93916 23.7316 1.10828 21.9154C1.59725 21.9742 2.08867 22.0036 2.58132 22.0049C5.36808 22.0073 8.07519 21.0723 10.2676 19.3505C7.61931 19.3002 5.297 17.5735 4.48573 15.0527C5.41342 15.2316 6.36931 15.1948 7.27985 14.946C4.39259 14.3627 2.31538 11.826 2.31538 8.87987C2.31538 8.85291 2.31538 8.82718 2.31538 8.80144C3.17568 9.28061 4.13891 9.54654 5.12421 9.57595C2.40484 7.75855 1.56661 4.1409 3.20877 1.31247C6.35092 5.17889 10.987 7.52938 15.9637 7.77816C15.4649 5.62865 16.1463 3.3762 17.7541 1.86517C20.2468 -0.477971 24.1671 -0.357873 26.5102 2.13355C27.8963 1.86026 29.2247 1.35169 30.4404 0.631097C29.9784 2.0637 29.0115 3.28061 27.7198 4.05389C28.9465 3.90928 30.145 3.58085 31.2737 3.07963C30.4428 4.32472 29.3963 5.40928 28.1855 6.28551Z" fill="#CDD6F4"/>
</g>
</g>
<defs>
<clipPath id="clip0_17_77">
<rect width="30.3922" height="25" fill="white" transform="translate(0.985718)"/>
</clipPath>
</defs>
</svg>
