<svg width="31" height="30" viewBox="0 0 31 30" fill="none" xmlns="http://www.w3.org/2000/svg">
<g id="captive_portal_FILL0_wght400_GRAD0_opsz24 1">
<path id="Vector" d="M12.4896 24.4375C12.1146 23.75 11.7864 23.0365 11.5052 22.2969C11.2239 21.5573 10.9896 20.7917 10.8021 20H7.11456C7.71873 21.0417 8.47394 21.9479 9.38019 22.7188C10.2864 23.4896 11.3229 24.0625 12.4896 24.4375ZM6.05206 17.5H10.3021C10.2396 17.0833 10.1927 16.6719 10.1614 16.2656C10.1302 15.8594 10.1146 15.4375 10.1146 15C10.1146 14.5625 10.1302 14.1406 10.1614 13.7344C10.1927 13.3281 10.2396 12.9167 10.3021 12.5H6.05206C5.9479 12.9167 5.86977 13.3281 5.81769 13.7344C5.7656 14.1406 5.73956 14.5625 5.73956 15C5.73956 15.4375 5.7656 15.8594 5.81769 16.2656C5.86977 16.6719 5.9479 17.0833 6.05206 17.5ZM7.11456 10H10.8021C10.9896 9.20833 11.2239 8.44271 11.5052 7.70312C11.7864 6.96354 12.1146 6.25 12.4896 5.5625C11.3229 5.9375 10.2864 6.51042 9.38019 7.28125C8.47394 8.05208 7.71873 8.95833 7.11456 10ZM13.3646 10H18.1146C17.8646 9.08333 17.5416 8.21875 17.1458 7.40625C16.75 6.59375 16.2812 5.8125 15.7396 5.0625C15.1979 5.8125 14.7291 6.59375 14.3333 7.40625C13.9375 8.21875 13.6146 9.08333 13.3646 10ZM20.6771 10H24.3646C23.7604 8.95833 23.0052 8.05208 22.0989 7.28125C21.1927 6.51042 20.1562 5.9375 18.9896 5.5625C19.3646 6.25 19.6927 6.96354 19.9739 7.70312C20.2552 8.44271 20.4896 9.20833 20.6771 10ZM15.7396 27.5C14.0312 27.5 12.4166 27.1719 10.8958 26.5156C9.37498 25.8594 8.04685 24.9635 6.91144 23.8281C5.77602 22.6927 4.88019 21.3646 4.22394 19.8438C3.56769 18.3229 3.23956 16.7083 3.23956 15C3.23956 13.2708 3.56769 11.651 4.22394 10.1406C4.88019 8.63021 5.77602 7.30729 6.91144 6.17188C8.04685 5.03646 9.37498 4.14062 10.8958 3.48438C12.4166 2.82812 14.0312 2.5 15.7396 2.5C17.4687 2.5 19.0885 2.82812 20.5989 3.48438C22.1094 4.14062 23.4323 5.03646 24.5677 6.17188C25.7031 7.30729 26.5989 8.63021 27.2552 10.1406C27.9114 11.651 28.2396 13.2708 28.2396 15C28.2396 15.2083 28.2344 15.4167 28.2239 15.625C28.2135 15.8333 28.1979 16.0417 28.1771 16.25H25.6458C25.6875 16.0417 25.7135 15.8385 25.7239 15.6406C25.7344 15.4427 25.7396 15.2292 25.7396 15C25.7396 14.5625 25.7135 14.1406 25.6614 13.7344C25.6094 13.3281 25.5312 12.9167 25.4271 12.5H21.1771C21.2396 12.9167 21.2864 13.3281 21.3177 13.7344C21.3489 14.1406 21.3646 14.5625 21.3646 15V15.6406C21.3646 15.8385 21.3541 16.0417 21.3333 16.25H18.8333C18.8541 16.0417 18.8646 15.8385 18.8646 15.6406V15C18.8646 14.5625 18.8489 14.1406 18.8177 13.7344C18.7864 13.3281 18.7396 12.9167 18.6771 12.5H12.8021C12.7396 12.9167 12.6927 13.3281 12.6614 13.7344C12.6302 14.1406 12.6146 14.5625 12.6146 15C12.6146 15.4375 12.6302 15.8594 12.6614 16.2656C12.6927 16.6719 12.7396 17.0833 12.8021 17.5H16.9896V20H13.3646C13.6146 20.9167 13.9375 21.7812 14.3333 22.5938C14.7291 23.4062 15.1979 24.1875 15.7396 24.9375C15.9687 24.6042 16.1875 24.2656 16.3958 23.9219C16.6041 23.5781 16.8021 23.2292 16.9896 22.875V27.4375C16.7812 27.4583 16.5781 27.474 16.3802 27.4844C16.1823 27.4948 15.9687 27.5 15.7396 27.5ZM25.6771 26.7188L21.9896 23.0312V25.8125H19.4896V18.75H26.5521V21.25H23.7396L27.4271 24.9375L25.6771 26.7188Z" fill="#CDD6F4"/>
</g>
</svg>
